<?xml version="1.0" encoding="iso-8859-1"?>
<!-- Generator: Adobe Illustrator 19.0.0, SVG Export Plug-In . SVG Version: 6.00 Build 0)  -->
<svg version="1.1" id="Capa_1" xmlns="http://www.w3.org/2000/svg" xmlns:xlink="http://www.w3.org/1999/xlink" x="0px" y="0px"
	 viewBox="0 0 512 512" style="enable-background:new 0 0 512 512;" xml:space="preserve">
<path style="fill:#2B96F5;" d="M412.655,54.559c-2.824-3.912-7.355-6.229-12.18-6.229h-82.741H192.091h-85.688
	c-4.957,0-9.595,2.446-12.395,6.536L0,192.177l253.291,270.53c0.617,0.659,1.453,0.976,2.285,0.962
	c0.089-0.002,0.177-0.017,0.265-0.026c0.702-0.073,1.385-0.374,1.909-0.932L512,192.177L412.655,54.559z"/>
<path style="fill:#49D5FF;" d="M192.091,48.33h-85.688c-4.957,0-9.595,2.446-12.395,6.536L0,192.177h152.134L192.091,48.33z"/>
<path style="fill:#2B96F5;" d="M512,192.177L412.655,54.559c-2.824-3.912-7.355-6.229-12.18-6.229h-82.741l42.132,143.848H512
	V192.177z"/>
<path style="fill:#2BB7FF;" d="M254.843,463.143L152.134,192.177H0l253.291,270.53c0.617,0.659,1.453,0.976,2.285,0.962
	C255.27,463.656,254.972,463.483,254.843,463.143z"/>
<path style="fill:#2B84E9;" d="M512,192.177H359.866l-103.48,270.966c-0.103,0.27-0.312,0.436-0.546,0.5
	c0.702-0.073,1.385-0.374,1.909-0.932L512,192.177z"/>
<polygon style="fill:#2BB7FF;" points="359.866,192.177 317.735,48.33 192.091,48.33 152.134,192.177 "/>
<path style="fill:#2B96F5;" d="M256.387,463.144l103.48-270.966H152.134l102.709,270.965c0.129,0.34,0.428,0.513,0.732,0.527
	c0.089-0.002,0.177-0.017,0.265-0.026C256.074,463.579,256.284,463.414,256.387,463.144z"/>
<path style="fill:#FFFFFF;" d="M155.071,179.652l9.528-7.117c2.168-1.619,5.037,0.799,3.807,3.21l-5.404,10.594
	c-0.577,1.132-0.236,2.516,0.802,3.25l9.713,6.863c2.21,1.562,0.796,5.038-1.876,4.613l-11.745-1.866
	c-1.255-0.199-2.466,0.553-2.843,1.767l-3.525,11.358c-0.802,2.585-4.545,2.314-4.967-0.359l-1.855-11.747
	c-0.198-1.255-1.288-2.174-2.559-2.158l-11.892,0.157c-2.706,0.036-3.605-3.607-1.193-4.835l10.599-5.394
	c1.133-0.576,1.67-1.897,1.261-3.101l-3.824-11.261c-0.87-2.563,2.317-4.543,4.229-2.629l8.405,8.414
	C152.631,180.31,154.053,180.412,155.071,179.652z"/>
<g>
</g>
<g>
</g>
<g>
</g>
<g>
</g>
<g>
</g>
<g>
</g>
<g>
</g>
<g>
</g>
<g>
</g>
<g>
</g>
<g>
</g>
<g>
</g>
<g>
</g>
<g>
</g>
<g>
</g>
</svg>
